<mxfile host="Electron" agent="Mozilla/5.0 (Windows NT 10.0; Win64; x64) AppleWebKit/537.36 (KHTML, like Gecko) draw.io/28.1.2 Chrome/138.0.7204.243 Electron/37.4.0 Safari/537.36" version="28.1.2">
  <diagram name="Trang-1" id="lLPREOri6NElLgWtM5jx">
    <mxGraphModel dx="1177" dy="-411" grid="1" gridSize="10" guides="1" tooltips="1" connect="1" arrows="1" fold="1" page="1" pageScale="1" pageWidth="850" pageHeight="1100" math="0" shadow="0">
      <root>
        <mxCell id="0" />
        <mxCell id="1" parent="0" />
        <mxCell id="MPpkF3HfyPds0EZIhNJW-1" value="Quản lý" style="rounded=0;whiteSpace=wrap;html=1;fontSize=11;" vertex="1" parent="1">
          <mxGeometry x="466" y="1313" width="120" height="60" as="geometry" />
        </mxCell>
        <mxCell id="MPpkF3HfyPds0EZIhNJW-2" value="Nhân viên" style="rounded=0;whiteSpace=wrap;html=1;fontSize=11;" vertex="1" parent="1">
          <mxGeometry x="466" y="1213" width="120" height="60" as="geometry" />
        </mxCell>
        <mxCell id="MPpkF3HfyPds0EZIhNJW-3" value="1.6" style="swimlane;childLayout=stackLayout;horizontal=1;startSize=40;horizontalStack=0;rounded=1;fontSize=11;fontStyle=0;strokeWidth=2;resizeParent=0;resizeLast=1;shadow=0;dashed=0;align=center;arcSize=4;whiteSpace=wrap;html=1;" vertex="1" parent="1">
          <mxGeometry x="1006" y="1794.5" width="160" height="92" as="geometry">
            <mxRectangle x="515" y="-17" width="60" height="50" as="alternateBounds" />
          </mxGeometry>
        </mxCell>
        <mxCell id="MPpkF3HfyPds0EZIhNJW-4" value="Tra cứu thông tin" style="text;html=1;align=center;verticalAlign=middle;resizable=0;points=[];autosize=1;strokeColor=none;fillColor=none;" vertex="1" parent="MPpkF3HfyPds0EZIhNJW-3">
          <mxGeometry y="40" width="160" height="52" as="geometry" />
        </mxCell>
        <mxCell id="MPpkF3HfyPds0EZIhNJW-5" value="Khách hàng" style="rounded=0;whiteSpace=wrap;html=1;fontSize=11;" vertex="1" parent="1">
          <mxGeometry x="1266" y="1836.5" width="120" height="60" as="geometry" />
        </mxCell>
        <mxCell id="MPpkF3HfyPds0EZIhNJW-6" value="Nhà Cung Cấp" style="rounded=0;whiteSpace=wrap;html=1;fontSize=11;" vertex="1" parent="1">
          <mxGeometry x="1266" y="1739.5" width="120" height="60" as="geometry" />
        </mxCell>
        <mxCell id="MPpkF3HfyPds0EZIhNJW-7" style="edgeStyle=orthogonalEdgeStyle;rounded=0;orthogonalLoop=1;jettySize=auto;html=1;entryX=0.002;entryY=0.361;entryDx=0;entryDy=0;exitX=0.992;exitY=0.401;exitDx=0;exitDy=0;exitPerimeter=0;entryPerimeter=0;" edge="1" parent="1" target="MPpkF3HfyPds0EZIhNJW-18">
          <mxGeometry relative="1" as="geometry">
            <mxPoint x="829.7200000000003" y="1337.1" as="sourcePoint" />
            <mxPoint x="1021" y="1337" as="targetPoint" />
          </mxGeometry>
        </mxCell>
        <mxCell id="MPpkF3HfyPds0EZIhNJW-8" value="1.1" style="swimlane;childLayout=stackLayout;horizontal=1;startSize=50;horizontalStack=0;rounded=1;fontSize=11;fontStyle=0;strokeWidth=2;resizeParent=0;resizeLast=1;shadow=0;dashed=0;align=center;arcSize=4;whiteSpace=wrap;html=1;" vertex="1" parent="1">
          <mxGeometry x="671" y="1293" width="160" height="100" as="geometry">
            <mxRectangle x="515" y="-17" width="60" height="50" as="alternateBounds" />
          </mxGeometry>
        </mxCell>
        <mxCell id="MPpkF3HfyPds0EZIhNJW-9" value="Đăng nhập hệ thống" style="text;html=1;align=center;verticalAlign=middle;resizable=0;points=[];autosize=1;strokeColor=none;fillColor=none;fontSize=11;" vertex="1" parent="MPpkF3HfyPds0EZIhNJW-8">
          <mxGeometry y="50" width="160" height="50" as="geometry" />
        </mxCell>
        <mxCell id="MPpkF3HfyPds0EZIhNJW-10" value="1.5" style="swimlane;childLayout=stackLayout;horizontal=1;startSize=50;horizontalStack=0;rounded=1;fontSize=11;fontStyle=0;strokeWidth=2;resizeParent=0;resizeLast=1;shadow=0;dashed=0;align=center;arcSize=4;whiteSpace=wrap;html=1;" vertex="1" parent="1">
          <mxGeometry x="466" y="1803" width="160" height="100" as="geometry">
            <mxRectangle x="515" y="-17" width="60" height="50" as="alternateBounds" />
          </mxGeometry>
        </mxCell>
        <mxCell id="MPpkF3HfyPds0EZIhNJW-11" value="Thống kê báo cáo" style="text;html=1;align=center;verticalAlign=middle;resizable=0;points=[];autosize=1;strokeColor=none;fillColor=none;fontSize=11;" vertex="1" parent="MPpkF3HfyPds0EZIhNJW-10">
          <mxGeometry y="50" width="160" height="50" as="geometry" />
        </mxCell>
        <mxCell id="MPpkF3HfyPds0EZIhNJW-12" value="1.2" style="swimlane;childLayout=stackLayout;horizontal=1;startSize=50;horizontalStack=0;rounded=1;fontSize=10;fontStyle=0;strokeWidth=2;resizeParent=0;resizeLast=1;shadow=0;dashed=0;align=center;arcSize=4;whiteSpace=wrap;html=1;" vertex="1" parent="1">
          <mxGeometry x="706" y="1633" width="160" height="100" as="geometry">
            <mxRectangle x="515" y="-17" width="60" height="50" as="alternateBounds" />
          </mxGeometry>
        </mxCell>
        <mxCell id="MPpkF3HfyPds0EZIhNJW-13" value="Nhập hàng" style="text;html=1;align=center;verticalAlign=middle;resizable=0;points=[];autosize=1;strokeColor=none;fillColor=none;fontSize=10;" vertex="1" parent="MPpkF3HfyPds0EZIhNJW-12">
          <mxGeometry y="50" width="160" height="50" as="geometry" />
        </mxCell>
        <mxCell id="MPpkF3HfyPds0EZIhNJW-14" value="&lt;font style=&quot;font-size: 11px;&quot;&gt;1.3&lt;/font&gt;" style="swimlane;childLayout=stackLayout;horizontal=1;startSize=50;horizontalStack=0;rounded=1;fontSize=14;fontStyle=0;strokeWidth=2;resizeParent=0;resizeLast=1;shadow=0;dashed=0;align=center;arcSize=4;whiteSpace=wrap;html=1;" vertex="1" parent="1">
          <mxGeometry x="683" y="1443" width="160" height="100" as="geometry">
            <mxRectangle x="515" y="-17" width="60" height="50" as="alternateBounds" />
          </mxGeometry>
        </mxCell>
        <mxCell id="MPpkF3HfyPds0EZIhNJW-15" value="Xuất hàng" style="text;html=1;align=center;verticalAlign=middle;resizable=0;points=[];autosize=1;strokeColor=none;fillColor=none;" vertex="1" parent="MPpkF3HfyPds0EZIhNJW-14">
          <mxGeometry y="50" width="160" height="50" as="geometry" />
        </mxCell>
        <mxCell id="MPpkF3HfyPds0EZIhNJW-16" value="Kho hàng nhập" style="shape=partialRectangle;whiteSpace=wrap;html=1;left=0;right=0;fillColor=none;" vertex="1" parent="1">
          <mxGeometry x="846" y="1798" width="120" height="40" as="geometry" />
        </mxCell>
        <mxCell id="MPpkF3HfyPds0EZIhNJW-17" value="Kho hàng xuất" style="shape=partialRectangle;whiteSpace=wrap;html=1;left=0;right=0;fillColor=none;" vertex="1" parent="1">
          <mxGeometry x="846" y="1873" width="120" height="40" as="geometry" />
        </mxCell>
        <mxCell id="MPpkF3HfyPds0EZIhNJW-18" value="Hệ thống" style="shape=partialRectangle;whiteSpace=wrap;html=1;left=0;right=0;fillColor=none;" vertex="1" parent="1">
          <mxGeometry x="926" y="1323" width="120" height="40" as="geometry" />
        </mxCell>
        <mxCell id="MPpkF3HfyPds0EZIhNJW-19" value="Kho hàng tồn" style="shape=partialRectangle;whiteSpace=wrap;html=1;left=0;right=0;fillColor=none;" vertex="1" parent="1">
          <mxGeometry x="846" y="1951" width="120" height="40" as="geometry" />
        </mxCell>
        <mxCell id="MPpkF3HfyPds0EZIhNJW-20" value="" style="endArrow=classic;html=1;rounded=0;exitX=1;exitY=0.25;exitDx=0;exitDy=0;entryX=-0.002;entryY=0.347;entryDx=0;entryDy=0;entryPerimeter=0;" edge="1" parent="1" source="MPpkF3HfyPds0EZIhNJW-1" target="MPpkF3HfyPds0EZIhNJW-8">
          <mxGeometry width="50" height="50" relative="1" as="geometry">
            <mxPoint x="806" y="1443" as="sourcePoint" />
            <mxPoint x="806" y="1328" as="targetPoint" />
          </mxGeometry>
        </mxCell>
        <mxCell id="MPpkF3HfyPds0EZIhNJW-21" value="" style="endArrow=classic;html=1;rounded=0;exitX=0.007;exitY=0.106;exitDx=0;exitDy=0;entryX=1;entryY=0.5;entryDx=0;entryDy=0;exitPerimeter=0;" edge="1" parent="1" source="MPpkF3HfyPds0EZIhNJW-9">
          <mxGeometry width="50" height="50" relative="1" as="geometry">
            <mxPoint x="806" y="1348" as="sourcePoint" />
            <mxPoint x="586" y="1348" as="targetPoint" />
          </mxGeometry>
        </mxCell>
        <mxCell id="MPpkF3HfyPds0EZIhNJW-22" value="" style="endArrow=classic;html=1;rounded=0;exitX=1;exitY=0.25;exitDx=0;exitDy=0;entryX=0.5;entryY=0;entryDx=0;entryDy=0;edgeStyle=orthogonalEdgeStyle;" edge="1" parent="1" source="MPpkF3HfyPds0EZIhNJW-2" target="MPpkF3HfyPds0EZIhNJW-8">
          <mxGeometry width="50" height="50" relative="1" as="geometry">
            <mxPoint x="736" y="1223" as="sourcePoint" />
            <mxPoint x="896" y="1223" as="targetPoint" />
          </mxGeometry>
        </mxCell>
        <mxCell id="MPpkF3HfyPds0EZIhNJW-23" style="edgeStyle=orthogonalEdgeStyle;rounded=0;orthogonalLoop=1;jettySize=auto;html=1;exitX=0;exitY=0.75;exitDx=0;exitDy=0;entryX=0.996;entryY=0.191;entryDx=0;entryDy=0;entryPerimeter=0;" edge="1" parent="1" source="MPpkF3HfyPds0EZIhNJW-18" target="MPpkF3HfyPds0EZIhNJW-9">
          <mxGeometry relative="1" as="geometry" />
        </mxCell>
        <mxCell id="MPpkF3HfyPds0EZIhNJW-24" value="&lt;font style=&quot;font-size: 11px;&quot;&gt;1.4&lt;/font&gt;" style="swimlane;childLayout=stackLayout;horizontal=1;startSize=50;horizontalStack=0;rounded=1;fontSize=14;fontStyle=0;strokeWidth=2;resizeParent=0;resizeLast=1;shadow=0;dashed=0;align=center;arcSize=4;whiteSpace=wrap;html=1;" vertex="1" parent="1">
          <mxGeometry x="456" y="1443" width="160" height="100" as="geometry">
            <mxRectangle x="515" y="-17" width="60" height="50" as="alternateBounds" />
          </mxGeometry>
        </mxCell>
        <mxCell id="MPpkF3HfyPds0EZIhNJW-25" value="Danh mục chức năng" style="text;html=1;align=center;verticalAlign=middle;resizable=0;points=[];autosize=1;strokeColor=none;fillColor=none;" vertex="1" parent="MPpkF3HfyPds0EZIhNJW-24">
          <mxGeometry y="50" width="160" height="50" as="geometry" />
        </mxCell>
        <mxCell id="MPpkF3HfyPds0EZIhNJW-26" value="" style="endArrow=classic;html=1;rounded=0;exitX=0.559;exitY=0.995;exitDx=0;exitDy=0;entryX=0.478;entryY=0.008;entryDx=0;entryDy=0;entryPerimeter=0;exitPerimeter=0;" edge="1" parent="1" source="MPpkF3HfyPds0EZIhNJW-1" target="MPpkF3HfyPds0EZIhNJW-24">
          <mxGeometry width="50" height="50" relative="1" as="geometry">
            <mxPoint x="816" y="1403" as="sourcePoint" />
            <mxPoint x="866" y="1353" as="targetPoint" />
          </mxGeometry>
        </mxCell>
        <mxCell id="MPpkF3HfyPds0EZIhNJW-27" value="" style="endArrow=classic;html=1;rounded=0;exitX=0.25;exitY=0;exitDx=0;exitDy=0;entryX=0.25;entryY=1;entryDx=0;entryDy=0;" edge="1" parent="1" source="MPpkF3HfyPds0EZIhNJW-24" target="MPpkF3HfyPds0EZIhNJW-1">
          <mxGeometry width="50" height="50" relative="1" as="geometry">
            <mxPoint x="504.0799999999999" y="1521.8" as="sourcePoint" />
            <mxPoint x="504" y="1293" as="targetPoint" />
          </mxGeometry>
        </mxCell>
        <mxCell id="MPpkF3HfyPds0EZIhNJW-28" value="Danh mục" style="shape=partialRectangle;whiteSpace=wrap;html=1;left=0;right=0;fillColor=none;" vertex="1" parent="1">
          <mxGeometry x="476" y="1673" width="120" height="40" as="geometry" />
        </mxCell>
        <mxCell id="MPpkF3HfyPds0EZIhNJW-29" value="" style="endArrow=classic;html=1;rounded=0;entryX=0;entryY=0.25;entryDx=0;entryDy=0;edgeStyle=orthogonalEdgeStyle;" edge="1" parent="1" target="MPpkF3HfyPds0EZIhNJW-24">
          <mxGeometry width="50" height="50" relative="1" as="geometry">
            <mxPoint x="466" y="1263" as="sourcePoint" />
            <mxPoint x="576" y="1293" as="targetPoint" />
            <Array as="points">
              <mxPoint x="466" y="1263" />
              <mxPoint x="426" y="1263" />
              <mxPoint x="426" y="1468" />
            </Array>
          </mxGeometry>
        </mxCell>
        <mxCell id="MPpkF3HfyPds0EZIhNJW-30" value="" style="endArrow=classic;html=1;rounded=0;exitX=0;exitY=0.5;exitDx=0;exitDy=0;edgeStyle=orthogonalEdgeStyle;" edge="1" parent="1" source="MPpkF3HfyPds0EZIhNJW-24">
          <mxGeometry width="50" height="50" relative="1" as="geometry">
            <mxPoint x="526" y="1343" as="sourcePoint" />
            <mxPoint x="466" y="1233" as="targetPoint" />
            <Array as="points">
              <mxPoint x="396" y="1493" />
              <mxPoint x="396" y="1233" />
              <mxPoint x="466" y="1233" />
            </Array>
          </mxGeometry>
        </mxCell>
        <mxCell id="MPpkF3HfyPds0EZIhNJW-31" value="" style="endArrow=classic;html=1;rounded=0;" edge="1" parent="1" source="MPpkF3HfyPds0EZIhNJW-24" target="MPpkF3HfyPds0EZIhNJW-28">
          <mxGeometry width="50" height="50" relative="1" as="geometry">
            <mxPoint x="886" y="1453" as="sourcePoint" />
            <mxPoint x="936" y="1403" as="targetPoint" />
          </mxGeometry>
        </mxCell>
        <mxCell id="MPpkF3HfyPds0EZIhNJW-32" value="" style="endArrow=classic;html=1;rounded=0;exitX=0.25;exitY=0;exitDx=0;exitDy=0;entryX=0.317;entryY=1.003;entryDx=0;entryDy=0;entryPerimeter=0;" edge="1" parent="1" source="MPpkF3HfyPds0EZIhNJW-28" target="MPpkF3HfyPds0EZIhNJW-25">
          <mxGeometry width="50" height="50" relative="1" as="geometry">
            <mxPoint x="886" y="1453" as="sourcePoint" />
            <mxPoint x="936" y="1403" as="targetPoint" />
          </mxGeometry>
        </mxCell>
        <mxCell id="MPpkF3HfyPds0EZIhNJW-33" value="Nhân viên" style="rounded=0;whiteSpace=wrap;html=1;fontSize=11;" vertex="1" parent="1">
          <mxGeometry x="896" y="1463" width="120" height="60" as="geometry" />
        </mxCell>
        <mxCell id="MPpkF3HfyPds0EZIhNJW-34" value="" style="endArrow=classic;html=1;rounded=0;exitX=0;exitY=0.25;exitDx=0;exitDy=0;entryX=1.007;entryY=0.346;entryDx=0;entryDy=0;entryPerimeter=0;" edge="1" parent="1" source="MPpkF3HfyPds0EZIhNJW-33" target="MPpkF3HfyPds0EZIhNJW-14">
          <mxGeometry width="50" height="50" relative="1" as="geometry">
            <mxPoint x="1036" y="1478" as="sourcePoint" />
            <mxPoint x="756" y="1478" as="targetPoint" />
          </mxGeometry>
        </mxCell>
        <mxCell id="MPpkF3HfyPds0EZIhNJW-35" value="" style="endArrow=classic;html=1;rounded=0;exitX=1.002;exitY=0.201;exitDx=0;exitDy=0;exitPerimeter=0;" edge="1" parent="1" source="MPpkF3HfyPds0EZIhNJW-15">
          <mxGeometry width="50" height="50" relative="1" as="geometry">
            <mxPoint x="826" y="1503" as="sourcePoint" />
            <mxPoint x="896" y="1503" as="targetPoint" />
          </mxGeometry>
        </mxCell>
        <mxCell id="MPpkF3HfyPds0EZIhNJW-36" value="" style="endArrow=classic;html=1;rounded=0;exitX=0.5;exitY=1;exitDx=0;exitDy=0;edgeStyle=orthogonalEdgeStyle;" edge="1" parent="1" source="MPpkF3HfyPds0EZIhNJW-33">
          <mxGeometry width="50" height="50" relative="1" as="geometry">
            <mxPoint x="1096" y="1683" as="sourcePoint" />
            <mxPoint x="866" y="1683" as="targetPoint" />
            <Array as="points">
              <mxPoint x="956" y="1683" />
              <mxPoint x="866" y="1683" />
            </Array>
          </mxGeometry>
        </mxCell>
        <mxCell id="MPpkF3HfyPds0EZIhNJW-37" value="" style="endArrow=classic;html=1;rounded=0;exitX=1.006;exitY=0.48;exitDx=0;exitDy=0;exitPerimeter=0;entryX=0.75;entryY=1;entryDx=0;entryDy=0;edgeStyle=orthogonalEdgeStyle;" edge="1" parent="1" source="MPpkF3HfyPds0EZIhNJW-13" target="MPpkF3HfyPds0EZIhNJW-33">
          <mxGeometry width="50" height="50" relative="1" as="geometry">
            <mxPoint x="1096" y="1683" as="sourcePoint" />
            <mxPoint x="1146" y="1633" as="targetPoint" />
          </mxGeometry>
        </mxCell>
        <mxCell id="MPpkF3HfyPds0EZIhNJW-38" value="" style="endArrow=classic;html=1;rounded=0;exitX=0.756;exitY=0.993;exitDx=0;exitDy=0;exitPerimeter=0;edgeStyle=orthogonalEdgeStyle;" edge="1" parent="1" source="MPpkF3HfyPds0EZIhNJW-13">
          <mxGeometry width="50" height="50" relative="1" as="geometry">
            <mxPoint x="875" y="1733" as="sourcePoint" />
            <mxPoint x="936" y="1798" as="targetPoint" />
            <Array as="points">
              <mxPoint x="827" y="1753" />
              <mxPoint x="936" y="1753" />
              <mxPoint x="936" y="1798" />
            </Array>
          </mxGeometry>
        </mxCell>
        <mxCell id="MPpkF3HfyPds0EZIhNJW-39" value="" style="endArrow=classic;html=1;rounded=0;exitX=0.5;exitY=0;exitDx=0;exitDy=0;entryX=0.557;entryY=1.055;entryDx=0;entryDy=0;entryPerimeter=0;edgeStyle=orthogonalEdgeStyle;" edge="1" parent="1" source="MPpkF3HfyPds0EZIhNJW-16" target="MPpkF3HfyPds0EZIhNJW-13">
          <mxGeometry width="50" height="50" relative="1" as="geometry">
            <mxPoint x="926" y="1773" as="sourcePoint" />
            <mxPoint x="976" y="1723" as="targetPoint" />
          </mxGeometry>
        </mxCell>
        <mxCell id="MPpkF3HfyPds0EZIhNJW-40" value="" style="endArrow=classic;html=1;rounded=0;exitX=0;exitY=0.5;exitDx=0;exitDy=0;entryX=1;entryY=0.25;entryDx=0;entryDy=0;edgeStyle=orthogonalEdgeStyle;" edge="1" parent="1" source="MPpkF3HfyPds0EZIhNJW-12" target="MPpkF3HfyPds0EZIhNJW-28">
          <mxGeometry width="50" height="50" relative="1" as="geometry">
            <mxPoint x="836" y="1643" as="sourcePoint" />
            <mxPoint x="886" y="1593" as="targetPoint" />
          </mxGeometry>
        </mxCell>
        <mxCell id="MPpkF3HfyPds0EZIhNJW-41" value="" style="endArrow=classic;html=1;rounded=0;exitX=1;exitY=0.5;exitDx=0;exitDy=0;edgeStyle=orthogonalEdgeStyle;entryX=0;entryY=0.4;entryDx=0;entryDy=0;entryPerimeter=0;" edge="1" parent="1" target="MPpkF3HfyPds0EZIhNJW-13">
          <mxGeometry width="50" height="50" relative="1" as="geometry">
            <mxPoint x="596" y="1702" as="sourcePoint" />
            <mxPoint x="816" y="1703" as="targetPoint" />
          </mxGeometry>
        </mxCell>
        <mxCell id="MPpkF3HfyPds0EZIhNJW-42" value="" style="endArrow=classic;html=1;rounded=0;entryX=0.75;entryY=0;entryDx=0;entryDy=0;edgeStyle=orthogonalEdgeStyle;" edge="1" parent="1" target="MPpkF3HfyPds0EZIhNJW-28">
          <mxGeometry width="50" height="50" relative="1" as="geometry">
            <mxPoint x="796" y="1543" as="sourcePoint" />
            <mxPoint x="866" y="1633" as="targetPoint" />
            <Array as="points">
              <mxPoint x="716" y="1543" />
              <mxPoint x="716" y="1583" />
              <mxPoint x="566" y="1583" />
            </Array>
          </mxGeometry>
        </mxCell>
        <mxCell id="MPpkF3HfyPds0EZIhNJW-43" value="" style="endArrow=classic;html=1;rounded=0;edgeStyle=orthogonalEdgeStyle;" edge="1" parent="1" target="MPpkF3HfyPds0EZIhNJW-15">
          <mxGeometry width="50" height="50" relative="1" as="geometry">
            <mxPoint x="586" y="1673" as="sourcePoint" />
            <mxPoint x="756" y="1550" as="targetPoint" />
            <Array as="points">
              <mxPoint x="586" y="1608" />
              <mxPoint x="756" y="1608" />
            </Array>
          </mxGeometry>
        </mxCell>
        <mxCell id="MPpkF3HfyPds0EZIhNJW-44" value="Nhân viên" style="rounded=0;whiteSpace=wrap;html=1;fontSize=11;" vertex="1" parent="1">
          <mxGeometry x="486" y="2010" width="120" height="60" as="geometry" />
        </mxCell>
        <mxCell id="MPpkF3HfyPds0EZIhNJW-45" value="" style="endArrow=classic;html=1;rounded=0;" edge="1" parent="1">
          <mxGeometry width="50" height="50" relative="1" as="geometry">
            <mxPoint x="500" y="2010" as="sourcePoint" />
            <mxPoint x="499" y="1903" as="targetPoint" />
          </mxGeometry>
        </mxCell>
        <mxCell id="MPpkF3HfyPds0EZIhNJW-46" value="" style="endArrow=classic;html=1;rounded=0;" edge="1" parent="1">
          <mxGeometry width="50" height="50" relative="1" as="geometry">
            <mxPoint x="531" y="1903" as="sourcePoint" />
            <mxPoint x="531" y="2010" as="targetPoint" />
          </mxGeometry>
        </mxCell>
        <mxCell id="MPpkF3HfyPds0EZIhNJW-47" value="" style="endArrow=classic;html=1;rounded=0;exitX=1;exitY=0.25;exitDx=0;exitDy=0;entryX=0;entryY=0.75;entryDx=0;entryDy=0;" edge="1" parent="1" source="MPpkF3HfyPds0EZIhNJW-10" target="MPpkF3HfyPds0EZIhNJW-16">
          <mxGeometry width="50" height="50" relative="1" as="geometry">
            <mxPoint x="696" y="1951" as="sourcePoint" />
            <mxPoint x="746" y="1901" as="targetPoint" />
          </mxGeometry>
        </mxCell>
        <mxCell id="MPpkF3HfyPds0EZIhNJW-48" value="" style="endArrow=classic;html=1;rounded=0;entryX=1;entryY=0;entryDx=0;entryDy=0;exitX=-0.001;exitY=0.106;exitDx=0;exitDy=0;exitPerimeter=0;" edge="1" parent="1">
          <mxGeometry width="50" height="50" relative="1" as="geometry">
            <mxPoint x="845.8799999999987" y="1812" as="sourcePoint" />
            <mxPoint x="625.9999999999991" y="1811.2399999999998" as="targetPoint" />
          </mxGeometry>
        </mxCell>
        <mxCell id="MPpkF3HfyPds0EZIhNJW-49" value="" style="endArrow=classic;html=1;rounded=0;exitX=1.001;exitY=0.478;exitDx=0;exitDy=0;entryX=0;entryY=0.25;entryDx=0;entryDy=0;edgeStyle=orthogonalEdgeStyle;exitPerimeter=0;" edge="1" parent="1" source="MPpkF3HfyPds0EZIhNJW-10" target="MPpkF3HfyPds0EZIhNJW-17">
          <mxGeometry width="50" height="50" relative="1" as="geometry">
            <mxPoint x="766" y="1931" as="sourcePoint" />
            <mxPoint x="816" y="1881" as="targetPoint" />
            <Array as="points">
              <mxPoint x="756" y="1851" />
              <mxPoint x="756" y="1883" />
            </Array>
          </mxGeometry>
        </mxCell>
        <mxCell id="MPpkF3HfyPds0EZIhNJW-50" value="" style="endArrow=classic;html=1;rounded=0;exitX=0;exitY=0.5;exitDx=0;exitDy=0;edgeStyle=orthogonalEdgeStyle;" edge="1" parent="1">
          <mxGeometry width="50" height="50" relative="1" as="geometry">
            <mxPoint x="846" y="1901" as="sourcePoint" />
            <mxPoint x="626" y="1871" as="targetPoint" />
            <Array as="points">
              <mxPoint x="736" y="1901" />
              <mxPoint x="736" y="1871" />
              <mxPoint x="626" y="1871" />
            </Array>
          </mxGeometry>
        </mxCell>
        <mxCell id="MPpkF3HfyPds0EZIhNJW-51" value="" style="endArrow=classic;html=1;rounded=0;exitX=0.871;exitY=1.02;exitDx=0;exitDy=0;entryX=0;entryY=0.25;entryDx=0;entryDy=0;edgeStyle=orthogonalEdgeStyle;exitPerimeter=0;" edge="1" parent="1" source="MPpkF3HfyPds0EZIhNJW-11" target="MPpkF3HfyPds0EZIhNJW-19">
          <mxGeometry width="50" height="50" relative="1" as="geometry">
            <mxPoint x="696" y="1961" as="sourcePoint" />
            <mxPoint x="746" y="1911" as="targetPoint" />
          </mxGeometry>
        </mxCell>
        <mxCell id="MPpkF3HfyPds0EZIhNJW-52" value="" style="endArrow=classic;html=1;rounded=0;exitX=0;exitY=0.5;exitDx=0;exitDy=0;entryX=0.763;entryY=1.02;entryDx=0;entryDy=0;entryPerimeter=0;edgeStyle=orthogonalEdgeStyle;" edge="1" parent="1" target="MPpkF3HfyPds0EZIhNJW-11">
          <mxGeometry width="50" height="50" relative="1" as="geometry">
            <mxPoint x="846" y="1978" as="sourcePoint" />
            <mxPoint x="554.48" y="1911.3" as="targetPoint" />
          </mxGeometry>
        </mxCell>
        <mxCell id="MPpkF3HfyPds0EZIhNJW-53" value="Dữ liệu khách hàng" style="shape=partialRectangle;whiteSpace=wrap;html=1;left=0;right=0;fillColor=none;" vertex="1" parent="1">
          <mxGeometry x="846" y="2025" width="120" height="40" as="geometry" />
        </mxCell>
        <mxCell id="MPpkF3HfyPds0EZIhNJW-54" value="Dữ liệu NCC" style="shape=partialRectangle;whiteSpace=wrap;html=1;left=0;right=0;fillColor=none;" vertex="1" parent="1">
          <mxGeometry x="846" y="2095" width="120" height="40" as="geometry" />
        </mxCell>
        <mxCell id="MPpkF3HfyPds0EZIhNJW-55" value="" style="endArrow=classic;html=1;rounded=0;exitX=1;exitY=0.75;exitDx=0;exitDy=0;entryX=0.25;entryY=0;entryDx=0;entryDy=0;edgeStyle=orthogonalEdgeStyle;" edge="1" parent="1" source="MPpkF3HfyPds0EZIhNJW-33" target="MPpkF3HfyPds0EZIhNJW-3">
          <mxGeometry width="50" height="50" relative="1" as="geometry">
            <mxPoint x="1226" y="1703" as="sourcePoint" />
            <mxPoint x="1276" y="1653" as="targetPoint" />
          </mxGeometry>
        </mxCell>
        <mxCell id="MPpkF3HfyPds0EZIhNJW-56" value="" style="endArrow=classic;html=1;rounded=0;exitX=0.5;exitY=0;exitDx=0;exitDy=0;entryX=1;entryY=0.25;entryDx=0;entryDy=0;edgeStyle=orthogonalEdgeStyle;" edge="1" parent="1" source="MPpkF3HfyPds0EZIhNJW-3" target="MPpkF3HfyPds0EZIhNJW-33">
          <mxGeometry width="50" height="50" relative="1" as="geometry">
            <mxPoint x="1206.0000000000005" y="1765.5" as="sourcePoint" />
            <mxPoint x="1286" y="1620.5" as="targetPoint" />
          </mxGeometry>
        </mxCell>
        <mxCell id="MPpkF3HfyPds0EZIhNJW-57" value="" style="endArrow=classic;html=1;rounded=0;edgeStyle=orthogonalEdgeStyle;entryX=1.005;entryY=0.197;entryDx=0;entryDy=0;entryPerimeter=0;" edge="1" parent="1" target="MPpkF3HfyPds0EZIhNJW-53">
          <mxGeometry width="50" height="50" relative="1" as="geometry">
            <mxPoint x="1020" y="1886.5" as="sourcePoint" />
            <mxPoint x="960" y="2032.5" as="targetPoint" />
            <Array as="points">
              <mxPoint x="1020" y="2033" />
            </Array>
          </mxGeometry>
        </mxCell>
        <mxCell id="MPpkF3HfyPds0EZIhNJW-58" value="" style="endArrow=classic;html=1;rounded=0;entryX=1;entryY=0.5;entryDx=0;entryDy=0;edgeStyle=orthogonalEdgeStyle;exitX=0.397;exitY=1.022;exitDx=0;exitDy=0;exitPerimeter=0;" edge="1" parent="1" source="MPpkF3HfyPds0EZIhNJW-4">
          <mxGeometry width="50" height="50" relative="1" as="geometry">
            <mxPoint x="1070" y="1881" as="sourcePoint" />
            <mxPoint x="966" y="2106" as="targetPoint" />
            <Array as="points">
              <mxPoint x="1070" y="2106" />
            </Array>
          </mxGeometry>
        </mxCell>
        <mxCell id="MPpkF3HfyPds0EZIhNJW-59" value="" style="endArrow=classic;html=1;rounded=0;entryX=1;entryY=0.25;entryDx=0;entryDy=0;exitX=0;exitY=0.25;exitDx=0;exitDy=0;edgeStyle=orthogonalEdgeStyle;" edge="1" parent="1" source="MPpkF3HfyPds0EZIhNJW-6" target="MPpkF3HfyPds0EZIhNJW-3">
          <mxGeometry width="50" height="50" relative="1" as="geometry">
            <mxPoint x="926" y="1889.5" as="sourcePoint" />
            <mxPoint x="976" y="1839.5" as="targetPoint" />
            <Array as="points">
              <mxPoint x="1206" y="1755" />
              <mxPoint x="1206" y="1817" />
            </Array>
          </mxGeometry>
        </mxCell>
        <mxCell id="MPpkF3HfyPds0EZIhNJW-60" value="" style="endArrow=classic;html=1;rounded=0;exitX=1;exitY=0.5;exitDx=0;exitDy=0;entryX=0;entryY=0.75;entryDx=0;entryDy=0;edgeStyle=orthogonalEdgeStyle;" edge="1" parent="1" source="MPpkF3HfyPds0EZIhNJW-3" target="MPpkF3HfyPds0EZIhNJW-6">
          <mxGeometry width="50" height="50" relative="1" as="geometry">
            <mxPoint x="926" y="1889.5" as="sourcePoint" />
            <mxPoint x="976" y="1839.5" as="targetPoint" />
            <Array as="points">
              <mxPoint x="1226" y="1841" />
              <mxPoint x="1226" y="1785" />
            </Array>
          </mxGeometry>
        </mxCell>
        <mxCell id="MPpkF3HfyPds0EZIhNJW-61" value="" style="endArrow=classic;html=1;rounded=0;entryX=1.003;entryY=0.74;entryDx=0;entryDy=0;entryPerimeter=0;exitX=0.011;exitY=0.608;exitDx=0;exitDy=0;exitPerimeter=0;edgeStyle=orthogonalEdgeStyle;" edge="1" parent="1" source="MPpkF3HfyPds0EZIhNJW-5" target="MPpkF3HfyPds0EZIhNJW-4">
          <mxGeometry width="50" height="50" relative="1" as="geometry">
            <mxPoint x="926" y="1889.5" as="sourcePoint" />
            <mxPoint x="976" y="1839.5" as="targetPoint" />
          </mxGeometry>
        </mxCell>
        <mxCell id="MPpkF3HfyPds0EZIhNJW-62" value="" style="endArrow=classic;html=1;rounded=0;entryX=0;entryY=0.25;entryDx=0;entryDy=0;exitX=0.998;exitY=0.324;exitDx=0;exitDy=0;exitPerimeter=0;edgeStyle=orthogonalEdgeStyle;" edge="1" parent="1" source="MPpkF3HfyPds0EZIhNJW-4" target="MPpkF3HfyPds0EZIhNJW-5">
          <mxGeometry width="50" height="50" relative="1" as="geometry">
            <mxPoint x="926" y="1889.5" as="sourcePoint" />
            <mxPoint x="976" y="1839.5" as="targetPoint" />
          </mxGeometry>
        </mxCell>
        <mxCell id="MPpkF3HfyPds0EZIhNJW-63" value="" style="endArrow=classic;html=1;rounded=0;exitX=0.25;exitY=0;exitDx=0;exitDy=0;entryX=1.005;entryY=0.64;entryDx=0;entryDy=0;edgeStyle=orthogonalEdgeStyle;entryPerimeter=0;" edge="1" parent="1" source="MPpkF3HfyPds0EZIhNJW-8" target="MPpkF3HfyPds0EZIhNJW-2">
          <mxGeometry width="50" height="50" relative="1" as="geometry">
            <mxPoint x="596" y="1233" as="sourcePoint" />
            <mxPoint x="646" y="1183" as="targetPoint" />
          </mxGeometry>
        </mxCell>
        <mxCell id="MPpkF3HfyPds0EZIhNJW-65" value="II. DFD - Mức 0&amp;nbsp;" style="text;html=1;align=center;verticalAlign=middle;resizable=0;points=[];autosize=1;strokeColor=none;fillColor=none;fontSize=11;" vertex="1" parent="1">
          <mxGeometry x="150" y="1160" width="100" height="30" as="geometry" />
        </mxCell>
        <mxCell id="MPpkF3HfyPds0EZIhNJW-68" value="(1)" style="text;html=1;align=center;verticalAlign=middle;resizable=0;points=[];autosize=1;strokeColor=none;fillColor=none;" vertex="1" parent="1">
          <mxGeometry x="606" y="1301" width="40" height="30" as="geometry" />
        </mxCell>
        <mxCell id="MPpkF3HfyPds0EZIhNJW-71" value="(3)" style="text;html=1;align=center;verticalAlign=middle;resizable=0;points=[];autosize=1;strokeColor=none;fillColor=none;" vertex="1" parent="1">
          <mxGeometry x="856" y="1348" width="40" height="30" as="geometry" />
        </mxCell>
        <mxCell id="MPpkF3HfyPds0EZIhNJW-72" value="(2)" style="text;html=1;align=center;verticalAlign=middle;resizable=0;points=[];autosize=1;strokeColor=none;fillColor=none;" vertex="1" parent="1">
          <mxGeometry x="856" y="1313" width="40" height="30" as="geometry" />
        </mxCell>
        <mxCell id="MPpkF3HfyPds0EZIhNJW-73" value="(4)" style="text;html=1;align=center;verticalAlign=middle;resizable=0;points=[];autosize=1;strokeColor=none;fillColor=none;" vertex="1" parent="1">
          <mxGeometry x="606" y="1343" width="40" height="30" as="geometry" />
        </mxCell>
        <mxCell id="MPpkF3HfyPds0EZIhNJW-75" value="(5)&lt;div&gt;&lt;br&gt;&lt;/div&gt;&lt;div&gt;&lt;br&gt;&lt;/div&gt;&lt;div&gt;(6)&lt;/div&gt;" style="text;html=1;align=center;verticalAlign=middle;resizable=0;points=[];autosize=1;strokeColor=none;fillColor=none;" vertex="1" parent="1">
          <mxGeometry x="646" y="1203" width="40" height="70" as="geometry" />
        </mxCell>
        <mxCell id="MPpkF3HfyPds0EZIhNJW-77" value="&amp;nbsp; (7)" style="text;html=1;align=center;verticalAlign=middle;resizable=0;points=[];autosize=1;strokeColor=none;fillColor=none;" vertex="1" parent="1">
          <mxGeometry x="520" y="1388" width="40" height="30" as="geometry" />
        </mxCell>
        <mxCell id="MPpkF3HfyPds0EZIhNJW-78" value="(8)" style="text;html=1;align=center;verticalAlign=middle;resizable=0;points=[];autosize=1;strokeColor=none;fillColor=none;" vertex="1" parent="1">
          <mxGeometry x="525" y="1588" width="40" height="30" as="geometry" />
        </mxCell>
        <mxCell id="MPpkF3HfyPds0EZIhNJW-79" value="(9)" style="text;html=1;align=center;verticalAlign=middle;resizable=0;points=[];autosize=1;strokeColor=none;fillColor=none;" vertex="1" parent="1">
          <mxGeometry x="475" y="1588" width="40" height="30" as="geometry" />
        </mxCell>
        <mxCell id="MPpkF3HfyPds0EZIhNJW-80" value="(10)" style="text;html=1;align=center;verticalAlign=middle;resizable=0;points=[];autosize=1;strokeColor=none;fillColor=none;" vertex="1" parent="1">
          <mxGeometry x="461" y="1389" width="40" height="30" as="geometry" />
        </mxCell>
        <mxCell id="MPpkF3HfyPds0EZIhNJW-81" value="(11)" style="text;html=1;align=center;verticalAlign=middle;resizable=0;points=[];autosize=1;strokeColor=none;fillColor=none;" vertex="1" parent="1">
          <mxGeometry x="416" y="1348" width="40" height="30" as="geometry" />
        </mxCell>
        <mxCell id="MPpkF3HfyPds0EZIhNJW-82" value="(12)" style="text;html=1;align=center;verticalAlign=middle;resizable=0;points=[];autosize=1;strokeColor=none;fillColor=none;" vertex="1" parent="1">
          <mxGeometry x="360" y="1348" width="40" height="30" as="geometry" />
        </mxCell>
        <mxCell id="MPpkF3HfyPds0EZIhNJW-83" value="(13)" style="text;html=1;align=center;verticalAlign=middle;resizable=0;points=[];autosize=1;strokeColor=none;fillColor=none;" vertex="1" parent="1">
          <mxGeometry x="851" y="1450" width="40" height="30" as="geometry" />
        </mxCell>
        <mxCell id="MPpkF3HfyPds0EZIhNJW-84" value="(14)" style="text;html=1;align=center;verticalAlign=middle;resizable=0;points=[];autosize=1;strokeColor=none;fillColor=none;" vertex="1" parent="1">
          <mxGeometry x="595" y="1558" width="40" height="30" as="geometry" />
        </mxCell>
        <mxCell id="MPpkF3HfyPds0EZIhNJW-85" value="(15)" style="text;html=1;align=center;verticalAlign=middle;resizable=0;points=[];autosize=1;strokeColor=none;fillColor=none;" vertex="1" parent="1">
          <mxGeometry x="596" y="1603" width="40" height="30" as="geometry" />
        </mxCell>
        <mxCell id="MPpkF3HfyPds0EZIhNJW-86" value="" style="endArrow=classic;html=1;rounded=0;exitX=0.431;exitY=-0.02;exitDx=0;exitDy=0;entryX=0.5;entryY=1;entryDx=0;entryDy=0;exitPerimeter=0;" edge="1" parent="1" source="MPpkF3HfyPds0EZIhNJW-10" target="MPpkF3HfyPds0EZIhNJW-28">
          <mxGeometry width="50" height="50" relative="1" as="geometry">
            <mxPoint x="290.96000000000004" y="1744" as="sourcePoint" />
            <mxPoint x="240.96000000000004" y="1794" as="targetPoint" />
          </mxGeometry>
        </mxCell>
        <mxCell id="MPpkF3HfyPds0EZIhNJW-87" value="" style="endArrow=classic;html=1;rounded=0;exitX=0;exitY=0.25;exitDx=0;exitDy=0;edgeStyle=orthogonalEdgeStyle;elbow=vertical;jumpStyle=arc;" edge="1" parent="1" source="MPpkF3HfyPds0EZIhNJW-14">
          <mxGeometry width="50" height="50" relative="1" as="geometry">
            <mxPoint x="651" y="1468" as="sourcePoint" />
            <mxPoint x="885.0000000000002" y="1913" as="targetPoint" />
            <Array as="points">
              <mxPoint x="641" y="1468" />
              <mxPoint x="641" y="1940" />
              <mxPoint x="885" y="1940" />
            </Array>
          </mxGeometry>
        </mxCell>
        <mxCell id="MPpkF3HfyPds0EZIhNJW-88" value="" style="endArrow=classic;html=1;rounded=0;exitX=0.25;exitY=1;exitDx=0;exitDy=0;entryX=0;entryY=0.5;entryDx=0;entryDy=0;edgeStyle=orthogonalEdgeStyle;jumpStyle=arc;jumpSize=6;" edge="1" parent="1">
          <mxGeometry width="50" height="50" relative="1" as="geometry">
            <mxPoint x="877" y="1913" as="sourcePoint" />
            <mxPoint x="684" y="1493" as="targetPoint" />
            <Array as="points">
              <mxPoint x="871" y="1913" />
              <mxPoint x="871" y="1930" />
              <mxPoint x="657" y="1930" />
              <mxPoint x="657" y="1493" />
            </Array>
          </mxGeometry>
        </mxCell>
        <mxCell id="MPpkF3HfyPds0EZIhNJW-89" value="(16)" style="text;html=1;align=center;verticalAlign=middle;resizable=0;points=[];autosize=1;strokeColor=none;fillColor=none;" vertex="1" parent="1">
          <mxGeometry x="606" y="1739.5" width="40" height="30" as="geometry" />
        </mxCell>
        <mxCell id="MPpkF3HfyPds0EZIhNJW-90" value="(17)" style="text;html=1;align=center;verticalAlign=middle;resizable=0;points=[];autosize=1;strokeColor=none;fillColor=none;" vertex="1" parent="1">
          <mxGeometry x="650" y="1739.5" width="40" height="30" as="geometry" />
        </mxCell>
        <mxCell id="MPpkF3HfyPds0EZIhNJW-91" value="(18)" style="text;html=1;align=center;verticalAlign=middle;resizable=0;points=[];autosize=1;strokeColor=none;fillColor=none;" vertex="1" parent="1">
          <mxGeometry x="850" y="1498" width="40" height="30" as="geometry" />
        </mxCell>
        <mxCell id="MPpkF3HfyPds0EZIhNJW-92" value="(19)" style="text;html=1;align=center;verticalAlign=middle;resizable=0;points=[];autosize=1;strokeColor=none;fillColor=none;" vertex="1" parent="1">
          <mxGeometry x="920" y="1656" width="40" height="30" as="geometry" />
        </mxCell>
        <mxCell id="MPpkF3HfyPds0EZIhNJW-93" value="(20)" style="text;html=1;align=center;verticalAlign=middle;resizable=0;points=[];autosize=1;strokeColor=none;fillColor=none;" vertex="1" parent="1">
          <mxGeometry x="661" y="1660" width="40" height="30" as="geometry" />
        </mxCell>
        <mxCell id="MPpkF3HfyPds0EZIhNJW-94" value="(21)" style="text;html=1;align=center;verticalAlign=middle;resizable=0;points=[];autosize=1;strokeColor=none;fillColor=none;" vertex="1" parent="1">
          <mxGeometry x="660" y="1698" width="40" height="30" as="geometry" />
        </mxCell>
        <mxCell id="MPpkF3HfyPds0EZIhNJW-95" value="(22)" style="text;html=1;align=center;verticalAlign=middle;resizable=0;points=[];autosize=1;strokeColor=none;fillColor=none;" vertex="1" parent="1">
          <mxGeometry x="870" y="1728" width="40" height="30" as="geometry" />
        </mxCell>
        <mxCell id="MPpkF3HfyPds0EZIhNJW-96" value="(23)" style="text;html=1;align=center;verticalAlign=middle;resizable=0;points=[];autosize=1;strokeColor=none;fillColor=none;" vertex="1" parent="1">
          <mxGeometry x="820" y="1759" width="40" height="30" as="geometry" />
        </mxCell>
        <mxCell id="MPpkF3HfyPds0EZIhNJW-97" value="(24)" style="text;html=1;align=center;verticalAlign=middle;resizable=0;points=[];autosize=1;strokeColor=none;fillColor=none;" vertex="1" parent="1">
          <mxGeometry x="920" y="1701" width="40" height="30" as="geometry" />
        </mxCell>
        <mxCell id="MPpkF3HfyPds0EZIhNJW-98" value="(25)" style="text;html=1;align=center;verticalAlign=middle;resizable=0;points=[];autosize=1;strokeColor=none;fillColor=none;" vertex="1" parent="1">
          <mxGeometry x="465" y="1938" width="40" height="30" as="geometry" />
        </mxCell>
        <mxCell id="MPpkF3HfyPds0EZIhNJW-100" value="(26)" style="text;html=1;align=center;verticalAlign=middle;resizable=0;points=[];autosize=1;strokeColor=none;fillColor=none;" vertex="1" parent="1">
          <mxGeometry x="693" y="1954" width="40" height="30" as="geometry" />
        </mxCell>
        <mxCell id="MPpkF3HfyPds0EZIhNJW-101" value="(27)" style="text;html=1;align=center;verticalAlign=middle;resizable=0;points=[];autosize=1;strokeColor=none;fillColor=none;" vertex="1" parent="1">
          <mxGeometry x="685" y="1971" width="40" height="30" as="geometry" />
        </mxCell>
        <mxCell id="MPpkF3HfyPds0EZIhNJW-102" value="(28)" style="text;html=1;align=center;verticalAlign=middle;resizable=0;points=[];autosize=1;strokeColor=none;fillColor=none;" vertex="1" parent="1">
          <mxGeometry x="760" y="1858" width="40" height="30" as="geometry" />
        </mxCell>
        <mxCell id="MPpkF3HfyPds0EZIhNJW-103" value="(29)" style="text;html=1;align=center;verticalAlign=middle;resizable=0;points=[];autosize=1;strokeColor=none;fillColor=none;" vertex="1" parent="1">
          <mxGeometry x="761" y="1893" width="40" height="30" as="geometry" />
        </mxCell>
        <mxCell id="MPpkF3HfyPds0EZIhNJW-104" value="(30)" style="text;html=1;align=center;verticalAlign=middle;resizable=0;points=[];autosize=1;strokeColor=none;fillColor=none;" vertex="1" parent="1">
          <mxGeometry x="761" y="1820" width="40" height="30" as="geometry" />
        </mxCell>
        <mxCell id="MPpkF3HfyPds0EZIhNJW-105" value="(31)" style="text;html=1;align=center;verticalAlign=middle;resizable=0;points=[];autosize=1;strokeColor=none;fillColor=none;" vertex="1" parent="1">
          <mxGeometry x="761" y="1789" width="40" height="30" as="geometry" />
        </mxCell>
        <mxCell id="MPpkF3HfyPds0EZIhNJW-106" value="" style="endArrow=classic;html=1;rounded=0;exitX=0.25;exitY=1;exitDx=0;exitDy=0;" edge="1" parent="1" source="MPpkF3HfyPds0EZIhNJW-28">
          <mxGeometry width="50" height="50" relative="1" as="geometry">
            <mxPoint x="292.1600000000001" y="1840" as="sourcePoint" />
            <mxPoint x="506.1600000000001" y="1800" as="targetPoint" />
          </mxGeometry>
        </mxCell>
        <mxCell id="MPpkF3HfyPds0EZIhNJW-107" value="(32)" style="text;html=1;align=center;verticalAlign=middle;resizable=0;points=[];autosize=1;strokeColor=none;fillColor=none;" vertex="1" parent="1">
          <mxGeometry x="530" y="1748" width="40" height="30" as="geometry" />
        </mxCell>
        <mxCell id="MPpkF3HfyPds0EZIhNJW-108" value="(33)" style="text;html=1;align=center;verticalAlign=middle;resizable=0;points=[];autosize=1;strokeColor=none;fillColor=none;" vertex="1" parent="1">
          <mxGeometry x="466" y="1748" width="40" height="30" as="geometry" />
        </mxCell>
        <mxCell id="MPpkF3HfyPds0EZIhNJW-109" value="(34)" style="text;html=1;align=center;verticalAlign=middle;resizable=0;points=[];autosize=1;strokeColor=none;fillColor=none;" vertex="1" parent="1">
          <mxGeometry x="526" y="1938" width="40" height="30" as="geometry" />
        </mxCell>
        <mxCell id="MPpkF3HfyPds0EZIhNJW-110" value="(35)" style="text;html=1;align=center;verticalAlign=middle;resizable=0;points=[];autosize=1;strokeColor=none;fillColor=none;" vertex="1" parent="1">
          <mxGeometry x="1010" y="1618" width="40" height="30" as="geometry" />
        </mxCell>
        <mxCell id="MPpkF3HfyPds0EZIhNJW-111" value="(36)" style="text;html=1;align=center;verticalAlign=middle;resizable=0;points=[];autosize=1;strokeColor=none;fillColor=none;" vertex="1" parent="1">
          <mxGeometry x="1084" y="1921" width="40" height="30" as="geometry" />
        </mxCell>
        <mxCell id="MPpkF3HfyPds0EZIhNJW-112" value="Danh mục" style="shape=partialRectangle;whiteSpace=wrap;html=1;left=0;right=0;fillColor=none;" vertex="1" parent="1">
          <mxGeometry x="1200" y="1985" width="120" height="40" as="geometry" />
        </mxCell>
        <mxCell id="MPpkF3HfyPds0EZIhNJW-114" value="" style="endArrow=classic;html=1;rounded=0;exitX=0.713;exitY=0.996;exitDx=0;exitDy=0;exitPerimeter=0;edgeStyle=orthogonalEdgeStyle;" edge="1" parent="1" source="MPpkF3HfyPds0EZIhNJW-4">
          <mxGeometry width="50" height="50" relative="1" as="geometry">
            <mxPoint x="1120" y="1890" as="sourcePoint" />
            <mxPoint x="1200" y="2010" as="targetPoint" />
            <Array as="points">
              <mxPoint x="1120" y="2010" />
              <mxPoint x="1199" y="2010" />
            </Array>
          </mxGeometry>
        </mxCell>
        <mxCell id="MPpkF3HfyPds0EZIhNJW-115" value="" style="endArrow=classic;html=1;rounded=0;exitX=0;exitY=0.25;exitDx=0;exitDy=0;entryX=0.9;entryY=1.067;entryDx=0;entryDy=0;entryPerimeter=0;edgeStyle=orthogonalEdgeStyle;" edge="1" parent="1" source="MPpkF3HfyPds0EZIhNJW-112">
          <mxGeometry width="50" height="50" relative="1" as="geometry">
            <mxPoint x="1139" y="1991" as="sourcePoint" />
            <mxPoint x="1139" y="1889.984" as="targetPoint" />
          </mxGeometry>
        </mxCell>
        <mxCell id="MPpkF3HfyPds0EZIhNJW-116" value="(37)" style="text;html=1;align=center;verticalAlign=middle;resizable=0;points=[];autosize=1;strokeColor=none;fillColor=none;" vertex="1" parent="1">
          <mxGeometry x="1134" y="1921" width="40" height="30" as="geometry" />
        </mxCell>
        <mxCell id="MPpkF3HfyPds0EZIhNJW-117" value="(38)" style="text;html=1;align=center;verticalAlign=middle;resizable=0;points=[];autosize=1;strokeColor=none;fillColor=none;" vertex="1" parent="1">
          <mxGeometry x="1030" y="1980" width="40" height="30" as="geometry" />
        </mxCell>
        <mxCell id="MPpkF3HfyPds0EZIhNJW-118" value="" style="endArrow=classic;html=1;rounded=0;entryX=0.203;entryY=1.004;entryDx=0;entryDy=0;entryPerimeter=0;edgeStyle=orthogonalEdgeStyle;" edge="1" parent="1" target="MPpkF3HfyPds0EZIhNJW-4">
          <mxGeometry width="50" height="50" relative="1" as="geometry">
            <mxPoint x="970" y="2050" as="sourcePoint" />
            <mxPoint x="1038.3999999999999" y="1900.876" as="targetPoint" />
          </mxGeometry>
        </mxCell>
        <mxCell id="MPpkF3HfyPds0EZIhNJW-119" value="(39)" style="text;html=1;align=center;verticalAlign=middle;resizable=0;points=[];autosize=1;strokeColor=none;fillColor=none;" vertex="1" parent="1">
          <mxGeometry x="986" y="1980" width="40" height="30" as="geometry" />
        </mxCell>
        <mxCell id="MPpkF3HfyPds0EZIhNJW-120" value="" style="endArrow=classic;html=1;rounded=0;exitX=1;exitY=0.75;exitDx=0;exitDy=0;edgeStyle=orthogonalEdgeStyle;" edge="1" parent="1" source="MPpkF3HfyPds0EZIhNJW-54" target="MPpkF3HfyPds0EZIhNJW-4">
          <mxGeometry width="50" height="50" relative="1" as="geometry">
            <mxPoint x="1120" y="2020" as="sourcePoint" />
            <mxPoint x="1090" y="1890" as="targetPoint" />
            <Array as="points">
              <mxPoint x="1090" y="2125" />
            </Array>
          </mxGeometry>
        </mxCell>
        <mxCell id="MPpkF3HfyPds0EZIhNJW-121" value="(39)" style="text;html=1;align=center;verticalAlign=middle;resizable=0;points=[];autosize=1;strokeColor=none;fillColor=none;" vertex="1" parent="1">
          <mxGeometry x="1010" y="2080" width="40" height="30" as="geometry" />
        </mxCell>
        <mxCell id="MPpkF3HfyPds0EZIhNJW-122" value="(40)" style="text;html=1;align=center;verticalAlign=middle;resizable=0;points=[];autosize=1;strokeColor=none;fillColor=none;" vertex="1" parent="1">
          <mxGeometry x="1010" y="2118" width="40" height="30" as="geometry" />
        </mxCell>
        <mxCell id="MPpkF3HfyPds0EZIhNJW-123" value="(42)" style="text;html=1;align=center;verticalAlign=middle;resizable=0;points=[];autosize=1;strokeColor=none;fillColor=none;" vertex="1" parent="1">
          <mxGeometry x="1220" y="1729" width="40" height="30" as="geometry" />
        </mxCell>
        <mxCell id="MPpkF3HfyPds0EZIhNJW-124" value="(41)" style="text;html=1;align=center;verticalAlign=middle;resizable=0;points=[];autosize=1;strokeColor=none;fillColor=none;" vertex="1" parent="1">
          <mxGeometry x="1080" y="1618" width="40" height="30" as="geometry" />
        </mxCell>
        <mxCell id="MPpkF3HfyPds0EZIhNJW-125" value="(43)" style="text;html=1;align=center;verticalAlign=middle;resizable=0;points=[];autosize=1;strokeColor=none;fillColor=none;" vertex="1" parent="1">
          <mxGeometry x="1220" y="1778" width="40" height="30" as="geometry" />
        </mxCell>
        <mxCell id="MPpkF3HfyPds0EZIhNJW-126" value="(44)" style="text;html=1;align=center;verticalAlign=middle;resizable=0;points=[];autosize=1;strokeColor=none;fillColor=none;" vertex="1" parent="1">
          <mxGeometry x="1220" y="1866.5" width="40" height="30" as="geometry" />
        </mxCell>
        <mxCell id="MPpkF3HfyPds0EZIhNJW-127" value="(45)" style="text;html=1;align=center;verticalAlign=middle;resizable=0;points=[];autosize=1;strokeColor=none;fillColor=none;" vertex="1" parent="1">
          <mxGeometry x="1220" y="1828" width="40" height="30" as="geometry" />
        </mxCell>
      </root>
    </mxGraphModel>
  </diagram>
</mxfile>
